<svg width="12" height="12" viewBox="0 0 12 12" fill="none" xmlns="http://www.w3.org/2000/svg">
<path d="M6.4 9.33333C6.93024 9.33267 7.62506 9.30723 8 8.91667C8.37494 8.52611 8.39936 7.80233 8.4 7.25V3.60126C8.40062 3.38224 8.35951 3.16527 8.27903 2.96293C8.19856 2.76059 8.08033 2.5769 7.9312 2.42251L7.0344 1.48834C6.88618 1.333 6.70984 1.20984 6.51559 1.12602C6.32134 1.04219 6.11306 0.999359 5.9028 1.00001H4C3.46977 1.00067 2.77494 1.09778 2.4 1.48834C2.02506 1.8789 2.00064 2.53101 2 3.08334V7.25C2.00064 7.80233 2.02506 8.52611 2.4 8.91667C2.77494 9.30723 3.46977 9.33267 4 9.33333H6.4ZM2.8 7.25V3.08334C2.8 2.75182 2.77496 2.27609 3 2.04167C3.22504 1.80725 3.68174 1.83334 4 1.83334C4 1.83334 5.9676 1.83917 6 1.84334V2.66667C6 2.88769 6.08429 3.09965 6.23431 3.25593C6.38434 3.41221 6.58783 3.50001 6.8 3.50001H7.5904C7.5944 3.53376 7.6 7.25 7.6 7.25C7.6 7.58152 7.62504 8.05724 7.4 8.29166C7.17496 8.52608 6.71826 8.5 6.4 8.5H4C3.68174 8.5 3.22504 8.52608 3 8.29166C2.77496 8.05724 2.8 7.58152 2.8 7.25ZM10 4.33334V8.91667C9.99936 9.469 9.97494 10.1928 9.6 10.5833C9.22506 10.9739 8.53024 10.9993 8 11H4.4C4.29392 11 4.19218 10.9561 4.11716 10.878C4.04215 10.7998 4 10.6938 4 10.5833C4 10.4728 4.04215 10.3668 4.11716 10.2887C4.19218 10.2106 4.29392 10.1667 4.4 10.1667H8C8.31826 10.1667 8.77496 10.1927 9 9.95833C9.22504 9.72391 9.2 9.24819 9.2 8.91667V4.33334C9.2 4.22283 9.24214 4.11685 9.31716 4.03871C9.39217 3.96057 9.49391 3.91667 9.6 3.91667C9.70609 3.91667 9.80783 3.96057 9.88284 4.03871C9.95786 4.11685 10 4.22283 10 4.33334Z" fill="#1B1E1D"/>
</svg>
