<svg width="12" height="12" viewBox="0 0 12 12" fill="none" xmlns="http://www.w3.org/2000/svg">
<path fill-rule="evenodd" clip-rule="evenodd" d="M11.6992 4.48027C11.6992 3.51582 11.4258 2.72491 10.9541 2.14531C10.4837 1.5676 9.84262 1.23284 9.16992 1.13261C8.17288 0.984297 7.10026 1.35039 6.34863 2.19511C6.31069 2.23777 6.25631 2.26249 6.19922 2.2625C6.14214 2.2625 6.08776 2.23775 6.0498 2.19511C5.29808 1.35067 4.22625 0.984277 3.22949 1.13261C2.5568 1.23284 1.91568 1.5676 1.44531 2.14531C0.97363 2.72491 0.700233 3.51588 0.700195 4.48027C0.700275 6.44662 2.10713 8.15611 3.36035 9.30743C4.00376 9.8985 4.64402 10.3777 5.12305 10.7078C5.36291 10.8731 5.56449 11.0024 5.70605 11.0906C5.77583 11.1341 5.83146 11.1681 5.87012 11.1912L5.90332 11.2107L5.90625 11.2117L5.91992 11.2205L5.9248 11.2225L5.92773 11.2244L5.93262 11.2273L5.93848 11.2303L5.94531 11.2342C6.10244 11.3204 6.29058 11.3207 6.44824 11.2371L6.45605 11.2322C6.45856 11.2306 6.462 11.2287 6.46582 11.2264L6.46777 11.2254L6.46959 11.2248L6.47166 11.2239L6.47852 11.2195L6.48242 11.2176L6.4834 11.2166C6.48539 11.2155 6.48821 11.2147 6.49023 11.2137C6.50003 11.208 6.51196 11.2014 6.52734 11.1922L6.69434 11.0906C6.83563 11.0025 7.03639 10.8732 7.27637 10.7078C7.75539 10.3777 8.39562 9.89852 9.03906 9.30743C10.2923 8.15611 11.6991 6.44663 11.6992 4.48027ZM1.78125 4.48027C1.78129 3.73669 1.98976 3.21027 2.27539 2.85918C2.56252 2.50642 2.9555 2.29615 3.38477 2.23222C4.24405 2.10435 5.23923 2.56531 5.69531 3.65605L5.73828 3.74199L5.77832 3.80058C5.87893 3.92858 6.03264 4.00664 6.2002 4.00664C6.41868 4.00648 6.61416 3.87262 6.69824 3.66875L6.70117 3.66191L6.78516 3.47832L6.78809 3.47051C7.27517 2.51195 8.20666 2.11207 9.01465 2.23222C9.44392 2.29615 9.8369 2.50642 10.124 2.85918C10.4097 3.21028 10.6181 3.73664 10.6182 4.48027C10.6181 5.9305 9.54544 7.3528 8.31934 8.4793C7.72319 9.02697 7.12355 9.47443 6.67285 9.78497C6.56864 9.85676 6.46994 9.91965 6.38503 9.97375C6.3577 9.99115 6.33181 10.0077 6.30762 10.0232C6.24163 10.0658 6.1568 10.0658 6.09082 10.0232C6.06876 10.009 6.04539 9.99409 6.02089 9.97842C5.93433 9.9231 5.83366 9.85875 5.72656 9.78497C5.27587 9.47443 4.67622 9.02697 4.08008 8.4793C2.85403 7.35282 1.78133 5.93046 1.78125 4.48027Z" fill="#1B1E1D"/>
<path fill-rule="evenodd" clip-rule="evenodd" d="M6.47166 11.2239L6.47266 11.2234L6.46959 11.2248L6.47166 11.2239Z" fill="#1B1E1D"/>
</svg>
