<svg width="12" height="12" viewBox="0 0 12 12" fill="none" xmlns="http://www.w3.org/2000/svg">
<path d="M0.694889 2.34689H7.51301C7.89534 2.34689 8.209 2.04754 8.209 1.67344C8.209 1.29935 7.89534 1 7.51301 1H0.694889C0.312973 1.00025 0 1.29931 0 1.67344C0 2.04758 0.312973 2.34663 0.694889 2.34689Z" fill="#1B1E1D"/>
<path d="M0.694889 5.85669H7.51301C7.89534 5.85669 8.209 5.55734 8.209 5.18325C8.209 4.80915 7.89534 4.5098 7.51301 4.5098H0.694889C0.312973 4.51006 0 4.80911 0 5.18325C0 5.55738 0.312973 5.85644 0.694889 5.85669Z" fill="#1B1E1D"/>
<path d="M0.694889 9.36649H4.60156C4.9839 9.36649 5.29756 9.06714 5.29756 8.69305C5.29756 8.31895 4.9839 8.01961 4.60156 8.01961H0.694889C0.312973 8.01986 0 8.31892 0 8.69305C0 9.06718 0.312973 9.36624 0.694889 9.36649Z" fill="#1B1E1D"/>
<path d="M6.93739 9.39412H8.19861C8.32397 9.39412 8.42581 9.49491 8.42581 9.61897V10.8266C8.42581 11.2009 8.73875 11.4999 9.1207 11.5C9.50303 11.5 9.8167 11.2007 9.8167 10.8266V9.61897C9.8167 9.49491 9.91854 9.39412 10.0439 9.39412H11.3051C11.687 9.39387 12 9.09481 12 8.72067C12 8.39333 11.7605 8.12298 11.4448 8.06039L11.3051 8.04723H10.0439C9.91854 8.04723 9.8167 7.94644 9.8167 7.82238V6.61479C9.8167 6.2407 9.50303 5.94135 9.1207 5.94135C8.73875 5.94146 8.42581 6.24049 8.42581 6.61479V7.82238C8.42581 7.94644 8.32397 8.04723 8.19861 8.04723H6.93739C6.55506 8.04723 6.2414 8.34658 6.2414 8.72067C6.2414 9.09477 6.55506 9.39412 6.93739 9.39412Z" fill="#1B1E1D"/>
</svg>
