<svg width="12" height="12" viewBox="0 0 12 12" fill="none" xmlns="http://www.w3.org/2000/svg">
<path d="M10.3082 6.93729C10.555 6.70152 10.959 6.69864 11.2101 6.93046C11.461 7.16245 11.4641 7.54218 11.2174 7.77821L8.56025 10.3205C8.44035 10.4352 8.27668 10.5 8.10563 10.5C7.93457 10.5 7.7709 10.4352 7.651 10.3205L6.32242 9.04936C6.07573 8.81328 6.0787 8.43358 6.32969 8.2016C6.58095 7.96967 6.98487 7.97328 7.23167 8.20941L8.10459 9.04545L10.3082 6.93729Z" fill="#1B1E1D"/>
<path d="M0.694889 2.35396H7.51301C7.89534 2.35396 8.209 2.05304 8.209 1.67698C8.209 1.30092 7.89534 1 7.51301 1H0.694889C0.312973 1.00025 0 1.30088 0 1.67698C0 2.05307 0.312973 2.3537 0.694889 2.35396Z" fill="#1B1E1D"/>
<path d="M0.694889 5.88219H7.51301C7.89534 5.88219 8.209 5.58127 8.209 5.20521C8.209 4.82915 7.89534 4.52823 7.51301 4.52823H0.694889C0.312973 4.52848 0 4.82911 0 5.20521C0 5.5813 0.312973 5.88193 0.694889 5.88219Z" fill="#1B1E1D"/>
<path d="M0.694889 9.41041H4.60156C4.9839 9.41041 5.29756 9.10949 5.29756 8.73344C5.29756 8.35738 4.9839 8.05646 4.60156 8.05646H0.694889C0.312973 8.05671 0 8.35734 0 8.73344C0 9.10953 0.312973 9.41016 0.694889 9.41041Z" fill="#1B1E1D"/>
</svg>
