<svg width="12" height="12" viewBox="0 0 12 12" fill="none" xmlns="http://www.w3.org/2000/svg">
<path d="M1 2.44727C1 1.64787 1.64802 1.00006 2.44727 1H3.82324C4.43628 1.0002 4.988 1.37324 5.21582 1.94238L5.74316 3.26074L5.80566 3.45605C5.90373 3.85042 5.8372 4.268 5.62207 4.6123L5.50195 4.77832L5.21875 5.11816C5.07419 5.29163 5.06556 5.53741 5.18848 5.71875L5.25 5.79199L6.20801 6.75098L6.28125 6.81152C6.46234 6.93403 6.70798 6.92613 6.88184 6.78125L7.22168 6.49805V6.49707C7.64502 6.14434 8.22787 6.0523 8.73926 6.25684L10.0576 6.78418L10.1621 6.83105C10.6721 7.08163 10.9999 7.60197 11 8.17676V9.55273C10.9999 10.3519 10.3521 11 9.55273 11C4.82925 11 1 7.17075 1 2.44727ZM2 2.44727C2 6.61847 5.38153 10 9.55273 10C9.79967 10 9.99992 9.79984 10 9.55273V8.17676C9.99991 7.97237 9.87529 7.78879 9.68555 7.71289L8.36816 7.18555C8.21881 7.1258 8.05095 7.14185 7.91699 7.22559L7.8623 7.26562L7.52246 7.5498H7.52148C6.92572 8.04593 6.04957 8.00635 5.50098 7.45801H5.5L4.54199 6.49902V6.49805C3.9946 5.94984 3.95367 5.07459 4.4502 4.47852L4.73438 4.1377C4.85187 3.99643 4.88221 3.80266 4.81445 3.63281L4.28711 2.31445C4.21124 2.12478 4.0275 2.0002 3.82324 2H2.44727C2.20017 2.00006 2 2.2003 2 2.44727Z" fill="#1B1E1D"/>
</svg>
