<svg width="336" height="32" viewBox="0 0 336 32" fill="none" xmlns="http://www.w3.org/2000/svg">
<g clip-path="url(#clip0_141_17784)">
<path fill-rule="evenodd" clip-rule="evenodd" d="M197.222 28.1635H201.004V0.00683665C199.854 -0.0114049 198.705 0.00685857 197.556 0.0616161C194.159 3.88216 190.802 7.735 187.489 11.6201C184.176 7.735 180.819 3.88216 177.422 0.0616161C176.273 -0.0114269 175.123 -0.0114269 173.974 0.0616161C170.577 3.88216 167.22 7.735 163.907 11.6201C160.593 7.735 157.237 3.88216 153.84 0.0616161C152.691 0.00685857 151.541 -0.0114049 150.392 0.00683665V28.1635H154.174C154.137 20.8227 154.174 13.4822 154.285 6.14214C154.352 6.15568 154.389 6.19219 154.396 6.2517C157.52 9.87974 160.671 13.4951 163.852 17.098C167.893 12.678 171.898 8.22259 175.865 3.73184C179.759 8.15229 183.616 12.6077 187.434 17.098C190.648 13.5041 193.837 9.88862 196.999 6.2517C197.007 6.19219 197.043 6.15568 197.111 6.14214C197.222 13.4822 197.259 20.8227 197.222 28.1635ZM333.821 5.26566C331.53 3.90516 329.045 3.28432 326.368 3.40316C323.148 3.8165 320.905 5.49642 319.638 8.44287C318.763 11.4419 319.486 13.9801 321.808 16.0572C323.954 17.699 326.179 19.2327 328.481 20.6587C329.196 21.1432 329.845 21.7093 330.428 22.3569C330.739 22.7888 330.962 23.2637 331.095 23.7811C331.38 25.4996 330.769 26.796 329.259 27.6705C327.632 28.2525 325.981 28.3072 324.31 27.8348C322.377 27.0287 320.746 25.8236 319.415 24.2193C319.341 25.9358 319.341 27.6522 319.415 29.3686C321.539 31.1526 324.005 32.0291 326.813 31.9981C330.266 32.0603 332.844 30.636 334.544 27.7252C335.998 23.6067 334.978 20.2287 331.484 17.591C329.352 16.1938 327.239 14.7696 325.144 13.3183C324.524 12.7806 323.987 12.178 323.531 11.5105C323.019 10.5945 323.019 9.68143 323.531 8.77154C324.502 7.55399 325.782 6.96967 327.368 7.0186C329.87 7.17615 332.04 8.08915 333.876 9.75758C333.969 8.25894 333.95 6.76163 333.821 5.26566ZM0 3.95098H3.89327V31.4502H0V3.95098ZM13.5708 4.00574C12.422 3.95098 11.2726 3.93271 10.1225 3.95095V31.4502H13.9045C13.8859 24.2924 13.9045 17.1344 13.9602 9.9767C14.0399 10.0363 14.0956 10.1094 14.127 10.1958C17.2527 13.8326 20.4043 17.4481 23.5821 21.0421C26.8069 17.4092 30.0143 13.7571 33.2041 10.0863C33.2597 17.2075 33.2782 24.3288 33.2597 31.4502H37.153V3.95095C35.9658 3.93271 34.7793 3.95098 33.5934 4.00574C30.3155 7.87326 26.9784 11.6896 23.5821 15.4546C20.2691 11.625 16.932 7.80865 13.5708 4.00574ZM65.2958 3.95098H82.0925V7.45685H69.3003V15.7834H81.7588V19.3988H69.3003V27.9444H82.5375V31.4502H65.2958V3.95098ZM114.796 3.95098H110.903V31.4502H114.796V3.95098ZM120.802 3.95098H124.696C124.677 9.64815 124.696 15.3452 124.752 21.0421C124.705 24.3924 126.279 26.6383 129.48 27.78C132.369 28.6324 135.15 28.3768 137.822 27.0131C139.487 25.9793 140.471 24.5003 140.77 22.576C140.825 16.3677 140.844 10.1595 140.825 3.95098H144.83C144.849 10.269 144.83 16.5869 144.775 22.9046C144.182 26.8845 141.977 29.6052 138.156 31.0668C133.865 32.541 129.711 32.2488 125.697 30.1903C123.152 28.701 121.575 26.5281 120.97 23.6716C120.951 23.4516 120.933 23.2317 120.913 23.0117C120.895 22.7935 120.876 22.5751 120.858 22.3569C120.802 16.2217 120.784 10.0864 120.802 3.95098ZM261.628 3.95098H237.156V7.45685C240.587 7.42053 243.997 7.45707 247.39 7.56641V31.4502H251.283C251.246 23.4705 251.283 15.5092 251.394 7.56641H261.628V3.95098ZM233.541 10.8532C230.08 5.56704 225.129 3.12021 218.69 3.51279C213.821 4.25786 210.058 6.66815 207.4 10.7437C204.99 15.3246 204.955 19.9261 207.289 24.548C209.355 27.9333 212.302 30.2158 216.133 31.3955C222.333 32.929 227.617 31.4133 231.984 26.8488C235.909 21.8486 236.428 16.5168 233.541 10.8532ZM230.426 14.0304C228.161 9.14283 224.287 6.87856 218.802 7.23771C214.135 8.23638 211.187 11.0119 209.959 15.5642C209.216 21.1688 211.421 25.1678 216.578 27.5609C219.957 28.6333 223.182 28.3045 226.255 26.5748C230.583 23.3525 231.974 19.1711 230.426 14.0304ZM276.533 3.51269C282.982 3.09995 287.932 5.54677 291.384 10.8531C294.121 16.1668 293.787 21.2796 290.382 26.1914C286.857 30.4005 282.316 32.3179 276.756 31.9432C270.767 31.1595 266.596 28.037 264.242 22.576C262.112 15.3564 264.207 9.67746 270.527 5.53953C272.419 4.4984 274.422 3.82278 276.533 3.51269ZM276.645 7.23768C282.243 6.87958 286.155 9.21687 288.38 14.2495C289.708 18.9137 288.54 22.8397 284.877 26.0271C282.21 27.9487 279.242 28.6061 275.978 27.9991C271.318 26.7326 268.554 23.7563 267.691 19.0701C267.465 12.7555 270.45 8.8114 276.645 7.23768ZM104.229 31.4502C105.806 31.4863 107.363 31.4498 108.901 31.3407C106.422 27.6028 103.919 23.8778 101.392 20.1656C100.844 19.4068 100.158 18.8042 99.3341 18.358C100.36 17.9987 101.324 17.5241 102.226 16.9337C103.262 16.1179 103.948 15.077 104.284 13.8113C105.334 7.94543 102.868 4.67693 96.887 4.00575C93.7725 3.95096 90.6579 3.93271 87.5431 3.95096V31.4502H91.5476V19.1796C94.0018 18.8831 95.9856 19.6865 97.4987 21.59C99.7722 24.865 102.015 28.1518 104.229 31.4502ZM95.6633 7.29251C94.2919 7.23774 92.92 7.21949 91.5476 7.23773V15.8929C93.2936 15.9278 95.0364 15.8731 96.7757 15.7285C98.364 15.5046 99.4947 14.6829 100.168 13.2635C101.112 9.4792 99.6103 7.48891 95.6633 7.29251ZM297.669 3.95096C300.746 3.93271 303.824 3.95096 306.902 4.00575C313.006 4.64937 315.472 7.9544 314.298 13.9209C313.846 15.4895 312.9 16.6764 311.462 17.4815C310.791 17.7756 310.124 18.0676 309.459 18.358C310.29 18.9196 311.012 19.5952 311.629 20.3848C314.076 24.0536 316.541 27.7055 319.026 31.3407C317.45 31.4498 315.857 31.4863 314.243 31.4502C312.037 27.9815 309.719 24.5852 307.291 21.2613C305.805 19.586 303.931 18.892 301.674 19.1796C301.562 23.2512 301.526 27.3413 301.562 31.4502H297.669V3.95096ZM305.789 7.34729C309.411 7.39931 310.95 9.18877 310.405 12.7157C309.915 14.4663 308.747 15.4706 306.902 15.7285C305.163 15.8755 303.42 15.9302 301.674 15.8929V7.34729H305.789ZM53.0598 4.00575C49.76 3.95096 46.46 3.93271 43.1597 3.95096V31.4502H47.0531V19.6179C49.4289 19.6575 51.8021 19.6027 54.1721 19.4535C55.0061 19.303 55.8218 19.0839 56.6194 18.7962C59.6349 17.4414 61.1181 15.1223 61.0688 11.8393C61.2047 9.99939 60.7042 8.35605 59.5672 6.90905C57.8252 5.03821 55.6561 4.07044 53.0598 4.00575ZM56.7862 13.373C57.5814 9.74796 56.1169 7.81237 52.3924 7.56641H47.1643V16.112C49.3189 16.1567 51.4694 16.102 53.6159 15.9476C55.2149 15.7196 56.2716 14.8613 56.7862 13.373ZM177.645 16.7694H173.751V25.0959H177.645V16.7694Z" fill="#8F8579"/>
</g>
<defs>
<clipPath id="clip0_141_17784">
<rect width="336" height="32" fill="white"/>
</clipPath>
</defs>
</svg>
